<mxfile host="Electron" modified="2023-10-22T13:23:10.931Z" agent="Mozilla/5.0 (X11; Linux x86_64) AppleWebKit/537.36 (KHTML, like Gecko) draw.io/21.7.5 Chrome/114.0.5735.134 Electron/25.6.0 Safari/537.36" etag="DLXh9DtOYf64LCvgUhpa" version="21.7.5" type="device" pages="16">
  <diagram id="f6MzDD82E5B1E1J3-Ezb" name="ResearchFlow">
    <mxGraphModel dx="33" dy="518" grid="1" gridSize="10" guides="1" tooltips="1" connect="1" arrows="1" fold="1" page="1" pageScale="1" pageWidth="827" pageHeight="1169" math="0" shadow="0">
      <root>
        <mxCell id="0" />
        <mxCell id="1" parent="0" />
        <mxCell id="tnNVzFTiTPPYR6M1umOF-10" value="" style="group" parent="1" vertex="1" connectable="0">
          <mxGeometry x="950" y="150" width="420" height="110" as="geometry" />
        </mxCell>
        <mxCell id="tnNVzFTiTPPYR6M1umOF-1" value="Identifikasi Masalah" style="rounded=0;whiteSpace=wrap;html=1;" parent="tnNVzFTiTPPYR6M1umOF-10" vertex="1">
          <mxGeometry width="120" height="40" as="geometry" />
        </mxCell>
        <mxCell id="tnNVzFTiTPPYR6M1umOF-2" value="Analisis Kebutuhan" style="rounded=0;whiteSpace=wrap;html=1;" parent="tnNVzFTiTPPYR6M1umOF-10" vertex="1">
          <mxGeometry y="70" width="120" height="40" as="geometry" />
        </mxCell>
        <mxCell id="tnNVzFTiTPPYR6M1umOF-6" style="edgeStyle=orthogonalEdgeStyle;rounded=0;orthogonalLoop=1;jettySize=auto;html=1;" parent="tnNVzFTiTPPYR6M1umOF-10" source="tnNVzFTiTPPYR6M1umOF-1" target="tnNVzFTiTPPYR6M1umOF-2" edge="1">
          <mxGeometry relative="1" as="geometry" />
        </mxCell>
        <mxCell id="tnNVzFTiTPPYR6M1umOF-3" value="Perancangan &amp;amp; Implementasi" style="rounded=0;whiteSpace=wrap;html=1;" parent="tnNVzFTiTPPYR6M1umOF-10" vertex="1">
          <mxGeometry x="150" y="70" width="120" height="40" as="geometry" />
        </mxCell>
        <mxCell id="tnNVzFTiTPPYR6M1umOF-7" style="edgeStyle=orthogonalEdgeStyle;rounded=0;orthogonalLoop=1;jettySize=auto;html=1;" parent="tnNVzFTiTPPYR6M1umOF-10" source="tnNVzFTiTPPYR6M1umOF-2" target="tnNVzFTiTPPYR6M1umOF-3" edge="1">
          <mxGeometry relative="1" as="geometry" />
        </mxCell>
        <mxCell id="tnNVzFTiTPPYR6M1umOF-4" value="Pengujian" style="rounded=0;whiteSpace=wrap;html=1;" parent="tnNVzFTiTPPYR6M1umOF-10" vertex="1">
          <mxGeometry x="150" width="120" height="40" as="geometry" />
        </mxCell>
        <mxCell id="tnNVzFTiTPPYR6M1umOF-8" style="edgeStyle=orthogonalEdgeStyle;rounded=0;orthogonalLoop=1;jettySize=auto;html=1;" parent="tnNVzFTiTPPYR6M1umOF-10" source="tnNVzFTiTPPYR6M1umOF-3" target="tnNVzFTiTPPYR6M1umOF-4" edge="1">
          <mxGeometry relative="1" as="geometry" />
        </mxCell>
        <mxCell id="tnNVzFTiTPPYR6M1umOF-5" value="Hasil" style="rounded=0;whiteSpace=wrap;html=1;" parent="tnNVzFTiTPPYR6M1umOF-10" vertex="1">
          <mxGeometry x="300" width="120" height="40" as="geometry" />
        </mxCell>
        <mxCell id="tnNVzFTiTPPYR6M1umOF-9" style="edgeStyle=orthogonalEdgeStyle;rounded=0;orthogonalLoop=1;jettySize=auto;html=1;" parent="tnNVzFTiTPPYR6M1umOF-10" source="tnNVzFTiTPPYR6M1umOF-4" target="tnNVzFTiTPPYR6M1umOF-5" edge="1">
          <mxGeometry relative="1" as="geometry" />
        </mxCell>
      </root>
    </mxGraphModel>
  </diagram>
  <diagram id="m-dhfpJzlIWqTM9DxHTn" name="AgilePath">
    <mxGraphModel dx="33" dy="518" grid="1" gridSize="10" guides="1" tooltips="1" connect="1" arrows="1" fold="1" page="1" pageScale="1" pageWidth="827" pageHeight="1169" math="0" shadow="0">
      <root>
        <mxCell id="0" />
        <mxCell id="1" parent="0" />
        <mxCell id="0eaVGEH0pVB4hHo2Vvec-2" value="Requirement Analysis" style="rounded=0;whiteSpace=wrap;html=1;" parent="1" vertex="1">
          <mxGeometry x="920" y="160" width="120" height="40" as="geometry" />
        </mxCell>
        <mxCell id="0eaVGEH0pVB4hHo2Vvec-3" value="Design" style="rounded=0;whiteSpace=wrap;html=1;" parent="1" vertex="1">
          <mxGeometry x="1080" y="160" width="120" height="40" as="geometry" />
        </mxCell>
        <mxCell id="0eaVGEH0pVB4hHo2Vvec-4" style="edgeStyle=orthogonalEdgeStyle;rounded=0;orthogonalLoop=1;jettySize=auto;html=1;" parent="1" source="0eaVGEH0pVB4hHo2Vvec-2" target="0eaVGEH0pVB4hHo2Vvec-3" edge="1">
          <mxGeometry relative="1" as="geometry" />
        </mxCell>
        <mxCell id="0eaVGEH0pVB4hHo2Vvec-5" value="Implementation" style="rounded=0;whiteSpace=wrap;html=1;" parent="1" vertex="1">
          <mxGeometry x="1241" y="160" width="120" height="40" as="geometry" />
        </mxCell>
        <mxCell id="0eaVGEH0pVB4hHo2Vvec-6" style="edgeStyle=orthogonalEdgeStyle;rounded=0;orthogonalLoop=1;jettySize=auto;html=1;" parent="1" source="0eaVGEH0pVB4hHo2Vvec-3" target="0eaVGEH0pVB4hHo2Vvec-5" edge="1">
          <mxGeometry relative="1" as="geometry" />
        </mxCell>
        <mxCell id="0eaVGEH0pVB4hHo2Vvec-7" value="Testing" style="rounded=0;whiteSpace=wrap;html=1;" parent="1" vertex="1">
          <mxGeometry x="1160" y="240" width="120" height="40" as="geometry" />
        </mxCell>
        <mxCell id="0eaVGEH0pVB4hHo2Vvec-8" style="edgeStyle=orthogonalEdgeStyle;rounded=0;orthogonalLoop=1;jettySize=auto;html=1;" parent="1" source="0eaVGEH0pVB4hHo2Vvec-5" target="0eaVGEH0pVB4hHo2Vvec-7" edge="1">
          <mxGeometry relative="1" as="geometry">
            <Array as="points">
              <mxPoint x="1301" y="260" />
            </Array>
          </mxGeometry>
        </mxCell>
        <mxCell id="0eaVGEH0pVB4hHo2Vvec-11" style="edgeStyle=orthogonalEdgeStyle;rounded=0;orthogonalLoop=1;jettySize=auto;html=1;" parent="1" source="0eaVGEH0pVB4hHo2Vvec-9" target="0eaVGEH0pVB4hHo2Vvec-2" edge="1">
          <mxGeometry relative="1" as="geometry">
            <Array as="points">
              <mxPoint x="980" y="260" />
            </Array>
          </mxGeometry>
        </mxCell>
        <mxCell id="0eaVGEH0pVB4hHo2Vvec-9" value="Review" style="rounded=0;whiteSpace=wrap;html=1;" parent="1" vertex="1">
          <mxGeometry x="1000" y="240" width="120" height="40" as="geometry" />
        </mxCell>
        <mxCell id="0eaVGEH0pVB4hHo2Vvec-10" style="edgeStyle=orthogonalEdgeStyle;rounded=0;orthogonalLoop=1;jettySize=auto;html=1;" parent="1" source="0eaVGEH0pVB4hHo2Vvec-7" target="0eaVGEH0pVB4hHo2Vvec-9" edge="1">
          <mxGeometry relative="1" as="geometry" />
        </mxCell>
      </root>
    </mxGraphModel>
  </diagram>
  <diagram id="bvbVE_WCkO3QC0mtbcga" name="MainMenuUI">
    <mxGraphModel dx="860" dy="518" grid="1" gridSize="10" guides="1" tooltips="1" connect="1" arrows="1" fold="1" page="1" pageScale="1" pageWidth="827" pageHeight="1169" math="0" shadow="0">
      <root>
        <mxCell id="0" />
        <mxCell id="1" parent="0" />
        <mxCell id="MeuJwveJDG_hMoKyS67v-1" value="" style="rounded=0;whiteSpace=wrap;html=1;" parent="1" vertex="1">
          <mxGeometry x="84" y="100" width="680" height="350" as="geometry" />
        </mxCell>
        <mxCell id="36WneUY-5rslGL_C9ssK-5" value="Play" style="rounded=0;whiteSpace=wrap;html=1;fontSize=22;" parent="1" vertex="1">
          <mxGeometry x="324" y="250" width="180" height="50" as="geometry" />
        </mxCell>
        <mxCell id="36WneUY-5rslGL_C9ssK-6" value="Options" style="rounded=0;whiteSpace=wrap;html=1;fontSize=22;" parent="1" vertex="1">
          <mxGeometry x="322" y="310" width="182" height="50" as="geometry" />
        </mxCell>
        <mxCell id="36WneUY-5rslGL_C9ssK-7" value="Quit" style="rounded=0;whiteSpace=wrap;html=1;fontSize=22;" parent="1" vertex="1">
          <mxGeometry x="320" y="370" width="180" height="50" as="geometry" />
        </mxCell>
        <mxCell id="36WneUY-5rslGL_C9ssK-8" value="GAME TITLE" style="rounded=0;whiteSpace=wrap;html=1;fontStyle=1;fontSize=32;" parent="1" vertex="1">
          <mxGeometry x="190" y="120" width="480" height="90" as="geometry" />
        </mxCell>
        <mxCell id="T4jELJth9nYa5eBkNpHO-1" value="Info" style="rounded=0;whiteSpace=wrap;html=1;fontSize=22;" parent="1" vertex="1">
          <mxGeometry x="660" y="380" width="80" height="50" as="geometry" />
        </mxCell>
      </root>
    </mxGraphModel>
  </diagram>
  <diagram id="VjwOhpfSUUrBZXdR_A1O" name="StageSelectUI">
    <mxGraphModel dx="860" dy="518" grid="0" gridSize="10" guides="1" tooltips="1" connect="1" arrows="1" fold="1" page="1" pageScale="1" pageWidth="827" pageHeight="1169" math="0" shadow="0">
      <root>
        <mxCell id="0" />
        <mxCell id="1" parent="0" />
        <mxCell id="0HMA8TMs7qORRu5moQCM-7" value="" style="rounded=0;whiteSpace=wrap;html=1;" parent="1" vertex="1">
          <mxGeometry x="52.68000000000001" y="110" width="680" height="350" as="geometry" />
        </mxCell>
        <mxCell id="0HMA8TMs7qORRu5moQCM-8" value="Stage" style="rounded=0;whiteSpace=wrap;html=1;fontStyle=1;fontSize=32;" parent="1" vertex="1">
          <mxGeometry x="88" y="130" width="480" height="50" as="geometry" />
        </mxCell>
        <mxCell id="E6t-gaHiTCaMRqFrFnex-2" value="X" style="rounded=0;whiteSpace=wrap;html=1;fontStyle=1;fontSize=32;" parent="1" vertex="1">
          <mxGeometry x="600" y="130" width="94.68" height="50" as="geometry" />
        </mxCell>
        <mxCell id="0HMA8TMs7qORRu5moQCM-12" value="Stage" style="rounded=0;whiteSpace=wrap;html=1;fontStyle=1;fontSize=16;container=0;" parent="1" vertex="1">
          <mxGeometry x="240.00150943396227" y="229" width="67.35849056603774" height="106.02409638554218" as="geometry" />
        </mxCell>
        <mxCell id="0HMA8TMs7qORRu5moQCM-17" value="Stage" style="rounded=0;whiteSpace=wrap;html=1;fontStyle=1;fontSize=16;container=0;" parent="1" vertex="1">
          <mxGeometry x="472.00150943396227" y="229" width="67.35849056603774" height="106.02409638554218" as="geometry" />
        </mxCell>
        <mxCell id="0HMA8TMs7qORRu5moQCM-30" value="Stage" style="rounded=0;whiteSpace=wrap;html=1;fontStyle=1;fontSize=16;container=0;" parent="1" vertex="1">
          <mxGeometry x="550.0015094339623" y="229" width="67.35849056603774" height="106.02409638554218" as="geometry" />
        </mxCell>
        <mxCell id="0HMA8TMs7qORRu5moQCM-32" value="Stage" style="rounded=0;whiteSpace=wrap;html=1;fontStyle=1;fontSize=16;container=0;" parent="1" vertex="1">
          <mxGeometry x="628.0015094339623" y="229" width="67.35849056603774" height="106.02409638554218" as="geometry" />
        </mxCell>
        <mxCell id="0HMA8TMs7qORRu5moQCM-10" value="Stage" style="rounded=0;whiteSpace=wrap;html=1;fontStyle=1;fontSize=16;container=0;" parent="1" vertex="1">
          <mxGeometry x="86" y="229" width="67.35849056603774" height="106.02409638554218" as="geometry" />
        </mxCell>
        <mxCell id="0HMA8TMs7qORRu5moQCM-11" value="Stage" style="rounded=0;whiteSpace=wrap;html=1;fontStyle=1;fontSize=16;container=0;" parent="1" vertex="1">
          <mxGeometry x="163.00075471698113" y="229" width="67.35849056603774" height="106.02409638554218" as="geometry" />
        </mxCell>
        <mxCell id="0HMA8TMs7qORRu5moQCM-19" value="Stage" style="rounded=0;whiteSpace=wrap;html=1;fontStyle=1;fontSize=16;container=0;" parent="1" vertex="1">
          <mxGeometry x="318" y="229" width="67.35849056603774" height="106.02409638554218" as="geometry" />
        </mxCell>
        <mxCell id="0HMA8TMs7qORRu5moQCM-20" value="Stage" style="rounded=0;whiteSpace=wrap;html=1;fontStyle=1;fontSize=16;container=0;" parent="1" vertex="1">
          <mxGeometry x="395.00075471698113" y="229" width="67.35849056603774" height="106.02409638554218" as="geometry" />
        </mxCell>
      </root>
    </mxGraphModel>
  </diagram>
  <diagram name="OptionsUI" id="QYACH7cSlahDOdQYbJ13">
    <mxGraphModel dx="860" dy="518" grid="0" gridSize="10" guides="1" tooltips="1" connect="1" arrows="1" fold="1" page="1" pageScale="1" pageWidth="827" pageHeight="1169" math="0" shadow="0">
      <root>
        <mxCell id="n1Gjs2r9QFGmoitTEfbZ-0" />
        <mxCell id="n1Gjs2r9QFGmoitTEfbZ-1" parent="n1Gjs2r9QFGmoitTEfbZ-0" />
        <mxCell id="n1Gjs2r9QFGmoitTEfbZ-2" value="" style="rounded=0;whiteSpace=wrap;html=1;" parent="n1Gjs2r9QFGmoitTEfbZ-1" vertex="1">
          <mxGeometry x="52.68000000000001" y="110" width="680" height="350" as="geometry" />
        </mxCell>
        <mxCell id="n1Gjs2r9QFGmoitTEfbZ-4" value="Options" style="rounded=0;whiteSpace=wrap;html=1;fontStyle=1;fontSize=32;" parent="n1Gjs2r9QFGmoitTEfbZ-1" vertex="1">
          <mxGeometry x="88" y="130" width="504" height="50" as="geometry" />
        </mxCell>
        <mxCell id="n1Gjs2r9QFGmoitTEfbZ-15" value="X" style="rounded=0;whiteSpace=wrap;html=1;fontStyle=1;fontSize=32;" parent="n1Gjs2r9QFGmoitTEfbZ-1" vertex="1">
          <mxGeometry x="600" y="130" width="94.68" height="50" as="geometry" />
        </mxCell>
        <mxCell id="NRHFvyir68KdqCot85hz-0" value="BGM" style="rounded=0;whiteSpace=wrap;html=1;fontStyle=1;fontSize=24;" parent="n1Gjs2r9QFGmoitTEfbZ-1" vertex="1">
          <mxGeometry x="88" y="225" width="212" height="44" as="geometry" />
        </mxCell>
        <mxCell id="NRHFvyir68KdqCot85hz-1" value="SFX" style="rounded=0;whiteSpace=wrap;html=1;fontStyle=1;fontSize=24;" parent="n1Gjs2r9QFGmoitTEfbZ-1" vertex="1">
          <mxGeometry x="88" y="282" width="212" height="44" as="geometry" />
        </mxCell>
        <mxCell id="NRHFvyir68KdqCot85hz-4" value="" style="rounded=0;whiteSpace=wrap;html=1;fontStyle=1;fontSize=24;" parent="n1Gjs2r9QFGmoitTEfbZ-1" vertex="1">
          <mxGeometry x="318" y="239" width="377" height="16" as="geometry" />
        </mxCell>
        <mxCell id="NRHFvyir68KdqCot85hz-5" value="" style="rounded=0;whiteSpace=wrap;html=1;fontStyle=1;fontSize=24;" parent="n1Gjs2r9QFGmoitTEfbZ-1" vertex="1">
          <mxGeometry x="650" y="235.5" width="13" height="23" as="geometry" />
        </mxCell>
        <mxCell id="NRHFvyir68KdqCot85hz-7" value="" style="rounded=0;whiteSpace=wrap;html=1;fontStyle=1;fontSize=24;" parent="n1Gjs2r9QFGmoitTEfbZ-1" vertex="1">
          <mxGeometry x="318" y="298" width="374" height="16" as="geometry" />
        </mxCell>
        <mxCell id="NRHFvyir68KdqCot85hz-8" value="" style="rounded=0;whiteSpace=wrap;html=1;fontStyle=1;fontSize=24;" parent="n1Gjs2r9QFGmoitTEfbZ-1" vertex="1">
          <mxGeometry x="559" y="294.5" width="13" height="23" as="geometry" />
        </mxCell>
        <mxCell id="NRHFvyir68KdqCot85hz-12" value="Save" style="rounded=0;whiteSpace=wrap;html=1;fontStyle=1;fontSize=24;" parent="n1Gjs2r9QFGmoitTEfbZ-1" vertex="1">
          <mxGeometry x="322.18" y="385" width="141" height="44" as="geometry" />
        </mxCell>
      </root>
    </mxGraphModel>
  </diagram>
  <diagram id="vG7D8FekNfAek0E7JXm4" name="PlayOrReadUI">
    <mxGraphModel dx="860" dy="518" grid="1" gridSize="10" guides="1" tooltips="1" connect="1" arrows="1" fold="1" page="1" pageScale="1" pageWidth="827" pageHeight="1169" math="0" shadow="0">
      <root>
        <mxCell id="0" />
        <mxCell id="1" parent="0" />
        <mxCell id="rmd4Yt6PotTYgMGIFIGl-1" value="" style="rounded=0;whiteSpace=wrap;html=1;" parent="1" vertex="1">
          <mxGeometry x="190" y="190" width="405.36" height="190" as="geometry" />
        </mxCell>
        <mxCell id="DEiAX9lkdbtyjMdKGguc-3" value="X" style="rounded=0;whiteSpace=wrap;html=1;fontStyle=1;fontSize=32;" parent="1" vertex="1">
          <mxGeometry x="557.3199999999999" y="170" width="54.68" height="50" as="geometry" />
        </mxCell>
        <mxCell id="DEiAX9lkdbtyjMdKGguc-9" value="Read" style="rounded=0;whiteSpace=wrap;html=1;fontStyle=1;fontSize=26;container=0;" parent="1" vertex="1">
          <mxGeometry x="400" y="310" width="182.32" height="50" as="geometry" />
        </mxCell>
        <mxCell id="DEiAX9lkdbtyjMdKGguc-8" value="Play" style="rounded=0;whiteSpace=wrap;html=1;fontStyle=1;fontSize=26;container=0;" parent="1" vertex="1">
          <mxGeometry x="210" y="310" width="180" height="50" as="geometry" />
        </mxCell>
        <mxCell id="DEiAX9lkdbtyjMdKGguc-2" value="Material Title" style="rounded=0;whiteSpace=wrap;html=1;fontStyle=1;fontSize=32;" parent="1" vertex="1">
          <mxGeometry x="247.68" y="220" width="290" height="50" as="geometry" />
        </mxCell>
      </root>
    </mxGraphModel>
  </diagram>
  <diagram name="InGameUI" id="cptq3cDZIhJboxNGUyY6">
    <mxGraphModel dx="860" dy="518" grid="1" gridSize="10" guides="1" tooltips="1" connect="1" arrows="1" fold="1" page="1" pageScale="1" pageWidth="827" pageHeight="1169" math="0" shadow="0">
      <root>
        <mxCell id="0" />
        <mxCell id="1" parent="0" />
        <mxCell id="4Qhv9Cc8m51Y4MN1YJju-2" value="" style="rounded=0;whiteSpace=wrap;html=1;" parent="1" vertex="1">
          <mxGeometry x="240" y="150" width="470" height="230" as="geometry" />
        </mxCell>
        <mxCell id="4Qhv9Cc8m51Y4MN1YJju-3" value="Player" style="rounded=0;whiteSpace=wrap;html=1;align=left;" parent="1" vertex="1">
          <mxGeometry x="250" y="160" width="100" height="20" as="geometry" />
        </mxCell>
        <mxCell id="4Qhv9Cc8m51Y4MN1YJju-12" value="" style="group" parent="1" vertex="1" connectable="0">
          <mxGeometry x="669.8521428571429" y="160" width="23.43" height="19" as="geometry" />
        </mxCell>
        <mxCell id="4Qhv9Cc8m51Y4MN1YJju-5" value="" style="rounded=0;whiteSpace=wrap;html=1;align=left;" parent="4Qhv9Cc8m51Y4MN1YJju-12" vertex="1">
          <mxGeometry width="23.43" height="19" as="geometry" />
        </mxCell>
        <mxCell id="4Qhv9Cc8m51Y4MN1YJju-11" value="" style="group" parent="4Qhv9Cc8m51Y4MN1YJju-12" vertex="1" connectable="0">
          <mxGeometry x="3.717857142857156" y="2.5" width="15.994285714285752" height="14" as="geometry" />
        </mxCell>
        <mxCell id="4Qhv9Cc8m51Y4MN1YJju-6" value="" style="rounded=0;whiteSpace=wrap;html=1;align=left;" parent="4Qhv9Cc8m51Y4MN1YJju-11" vertex="1">
          <mxGeometry width="7" height="14" as="geometry" />
        </mxCell>
        <mxCell id="4Qhv9Cc8m51Y4MN1YJju-7" value="" style="rounded=0;whiteSpace=wrap;html=1;align=left;" parent="4Qhv9Cc8m51Y4MN1YJju-11" vertex="1">
          <mxGeometry x="8.994285714285752" width="7" height="14" as="geometry" />
        </mxCell>
        <mxCell id="4Qhv9Cc8m51Y4MN1YJju-13" value="Object 0 of 0" style="rounded=0;whiteSpace=wrap;html=1;align=center;" parent="1" vertex="1">
          <mxGeometry x="550" y="159.5" width="80" height="20" as="geometry" />
        </mxCell>
        <mxCell id="4Qhv9Cc8m51Y4MN1YJju-14" value="00:00" style="rounded=0;whiteSpace=wrap;html=1;align=center;" parent="1" vertex="1">
          <mxGeometry x="630" y="159.5" width="40" height="20" as="geometry" />
        </mxCell>
        <mxCell id="4Qhv9Cc8m51Y4MN1YJju-19" value="Analog" style="ellipse;whiteSpace=wrap;html=1;aspect=fixed;" parent="1" vertex="1">
          <mxGeometry x="260" y="280" width="80" height="80" as="geometry" />
        </mxCell>
        <mxCell id="4Qhv9Cc8m51Y4MN1YJju-20" value="Action" style="ellipse;whiteSpace=wrap;html=1;aspect=fixed;" parent="1" vertex="1">
          <mxGeometry x="630" y="280" width="40" height="40" as="geometry" />
        </mxCell>
      </root>
    </mxGraphModel>
  </diagram>
  <diagram id="-QN3Ys7MDWMzMXzj0Ok8" name="QuestUI">
    <mxGraphModel dx="860" dy="518" grid="1" gridSize="10" guides="1" tooltips="1" connect="1" arrows="1" fold="1" page="1" pageScale="1" pageWidth="827" pageHeight="1169" math="0" shadow="0">
      <root>
        <mxCell id="0" />
        <mxCell id="1" parent="0" />
        <mxCell id="trS-FsYysDu7gJ4gRRhb-1" value="" style="rounded=0;whiteSpace=wrap;html=1;" parent="1" vertex="1">
          <mxGeometry x="190" y="160" width="450" height="230" as="geometry" />
        </mxCell>
        <mxCell id="trS-FsYysDu7gJ4gRRhb-11" value="Question Text" style="rounded=0;whiteSpace=wrap;html=1;fillColor=#EDEDED;strokeColor=none;" parent="1" vertex="1">
          <mxGeometry x="210" y="230" width="410" height="20" as="geometry" />
        </mxCell>
        <mxCell id="xNHUlgPBMcfuGv_E8tPR-2" value="Score" style="rounded=0;whiteSpace=wrap;html=1;" parent="1" vertex="1">
          <mxGeometry x="200" y="170" width="70" height="20" as="geometry" />
        </mxCell>
        <mxCell id="xNHUlgPBMcfuGv_E8tPR-3" value="00:00" style="rounded=0;whiteSpace=wrap;html=1;" parent="1" vertex="1">
          <mxGeometry x="560" y="170" width="70" height="20" as="geometry" />
        </mxCell>
        <mxCell id="trS-FsYysDu7gJ4gRRhb-14" value="Answer A" style="rounded=0;whiteSpace=wrap;html=1;fillColor=#EDEDED;strokeColor=none;" parent="1" vertex="1">
          <mxGeometry x="210" y="280" width="201.60000000000002" height="36.36363636363637" as="geometry" />
        </mxCell>
        <mxCell id="trS-FsYysDu7gJ4gRRhb-15" value="&lt;span style=&quot;font-family: Helvetica; font-size: 12px; font-style: normal; font-variant-ligatures: normal; font-variant-caps: normal; font-weight: 400; letter-spacing: normal; orphans: 2; text-align: center; text-indent: 0px; text-transform: none; widows: 2; word-spacing: 0px; -webkit-text-stroke-width: 0px; text-decoration-thickness: initial; text-decoration-style: initial; text-decoration-color: initial; float: none; display: inline !important;&quot;&gt;Answer C&lt;/span&gt;" style="rounded=0;whiteSpace=wrap;html=1;fillColor=#EDEDED;strokeColor=none;fontColor=default;labelBackgroundColor=none;" parent="1" vertex="1">
          <mxGeometry x="210" y="323.6363636363636" width="201.60000000000002" height="36.36363636363637" as="geometry" />
        </mxCell>
        <mxCell id="trS-FsYysDu7gJ4gRRhb-16" value="&lt;span style=&quot;color: rgb(0, 0, 0); font-family: Helvetica; font-size: 12px; font-style: normal; font-variant-ligatures: normal; font-variant-caps: normal; font-weight: 400; letter-spacing: normal; orphans: 2; text-align: center; text-indent: 0px; text-transform: none; widows: 2; word-spacing: 0px; -webkit-text-stroke-width: 0px; text-decoration-thickness: initial; text-decoration-style: initial; text-decoration-color: initial; float: none; display: inline !important;&quot;&gt;Answer D&lt;/span&gt;" style="rounded=0;whiteSpace=wrap;html=1;fillColor=#EDEDED;strokeColor=none;labelBackgroundColor=none;" parent="1" vertex="1">
          <mxGeometry x="428.4" y="323.64" width="191.6" height="36.36" as="geometry" />
        </mxCell>
        <mxCell id="trS-FsYysDu7gJ4gRRhb-17" value="&lt;span style=&quot;color: rgb(0, 0, 0); font-family: Helvetica; font-size: 12px; font-style: normal; font-variant-ligatures: normal; font-variant-caps: normal; font-weight: 400; letter-spacing: normal; orphans: 2; text-align: center; text-indent: 0px; text-transform: none; widows: 2; word-spacing: 0px; -webkit-text-stroke-width: 0px; text-decoration-thickness: initial; text-decoration-style: initial; text-decoration-color: initial; float: none; display: inline !important;&quot;&gt;Answer B&lt;/span&gt;" style="rounded=0;whiteSpace=wrap;html=1;fillColor=#EDEDED;fillStyle=auto;strokeColor=none;labelBackgroundColor=none;" parent="1" vertex="1">
          <mxGeometry x="428.4" y="280" width="191.6" height="36.36" as="geometry" />
        </mxCell>
      </root>
    </mxGraphModel>
  </diagram>
  <diagram id="C1FcqHf4VFfyf51zM5Mn" name="PauseUI">
    <mxGraphModel dx="860" dy="518" grid="0" gridSize="10" guides="1" tooltips="1" connect="1" arrows="1" fold="1" page="1" pageScale="1" pageWidth="827" pageHeight="1169" math="0" shadow="0">
      <root>
        <mxCell id="0" />
        <mxCell id="1" parent="0" />
        <mxCell id="YvXbzxNQUR7dTeZEtJqn-11" value="" style="rounded=0;whiteSpace=wrap;html=1;" parent="1" vertex="1">
          <mxGeometry x="240" y="169" width="370" height="231" as="geometry" />
        </mxCell>
        <mxCell id="YvXbzxNQUR7dTeZEtJqn-13" value="PAUSED" style="rounded=0;whiteSpace=wrap;html=1;" parent="1" vertex="1">
          <mxGeometry x="305" y="193" width="250" height="40" as="geometry" />
        </mxCell>
        <mxCell id="YvXbzxNQUR7dTeZEtJqn-12" value="RESUME" style="rounded=0;whiteSpace=wrap;html=1;" parent="1" vertex="1">
          <mxGeometry x="300" y="279" width="250" height="43.5" as="geometry" />
        </mxCell>
        <mxCell id="YvXbzxNQUR7dTeZEtJqn-14" value="BACK TO MENU" style="rounded=0;whiteSpace=wrap;html=1;labelBackgroundColor=none;" parent="1" vertex="1">
          <mxGeometry x="300" y="331" width="250" height="43.5" as="geometry" />
        </mxCell>
      </root>
    </mxGraphModel>
  </diagram>
  <diagram id="chlSesIT8t8AnyuM74Mr" name="LearningUI">
    <mxGraphModel dx="860" dy="518" grid="1" gridSize="10" guides="1" tooltips="1" connect="1" arrows="1" fold="1" page="1" pageScale="1" pageWidth="827" pageHeight="1169" math="0" shadow="0">
      <root>
        <mxCell id="0" />
        <mxCell id="1" parent="0" />
        <mxCell id="x7E2HbvNHAWgIzieiyEb-1" value="" style="rounded=0;whiteSpace=wrap;html=1;" parent="1" vertex="1">
          <mxGeometry x="74" y="90" width="680" height="350" as="geometry" />
        </mxCell>
        <mxCell id="KWXwktazdMXaDhLnR21a-1" value="TITLE" style="rounded=0;whiteSpace=wrap;html=1;align=left;spacingLeft=10;" parent="1" vertex="1">
          <mxGeometry x="90" y="106" width="570" height="40" as="geometry" />
        </mxCell>
        <mxCell id="YLkG0jEWKR362FTN3VP7-9" value="X" style="rounded=0;whiteSpace=wrap;html=1;" parent="1" vertex="1">
          <mxGeometry x="680" y="106" width="50" height="40" as="geometry" />
        </mxCell>
        <mxCell id="YLkG0jEWKR362FTN3VP7-10" value="" style="group" parent="1" vertex="1" connectable="0">
          <mxGeometry x="90" y="160" width="640" height="260" as="geometry" />
        </mxCell>
        <mxCell id="YLkG0jEWKR362FTN3VP7-8" value="" style="rounded=0;whiteSpace=wrap;html=1;" parent="YLkG0jEWKR362FTN3VP7-10" vertex="1">
          <mxGeometry width="640" height="260" as="geometry" />
        </mxCell>
        <mxCell id="YLkG0jEWKR362FTN3VP7-1" value="" style="rounded=0;whiteSpace=wrap;html=1;fillColor=#eeeeee;strokeColor=#36393d;" parent="YLkG0jEWKR362FTN3VP7-10" vertex="1">
          <mxGeometry x="33.68421052631578" y="21.666666666666657" width="561.4035087719298" height="21.666666666666664" as="geometry" />
        </mxCell>
        <mxCell id="YLkG0jEWKR362FTN3VP7-2" value="" style="rounded=0;whiteSpace=wrap;html=1;fillColor=#eeeeee;strokeColor=#36393d;" parent="YLkG0jEWKR362FTN3VP7-10" vertex="1">
          <mxGeometry x="33.68421052631578" y="47.66666666666666" width="561.4035087719298" height="21.666666666666664" as="geometry" />
        </mxCell>
        <mxCell id="YLkG0jEWKR362FTN3VP7-3" value="" style="rounded=0;whiteSpace=wrap;html=1;fillColor=#eeeeee;strokeColor=#36393d;" parent="YLkG0jEWKR362FTN3VP7-10" vertex="1">
          <mxGeometry x="33.68421052631578" y="74.74999999999999" width="492.9396662387676" height="21.666666666666664" as="geometry" />
        </mxCell>
        <mxCell id="YLkG0jEWKR362FTN3VP7-4" value="" style="rounded=0;whiteSpace=wrap;html=1;fillColor=#eeeeee;strokeColor=#36393d;" parent="YLkG0jEWKR362FTN3VP7-10" vertex="1">
          <mxGeometry x="33.68421052631578" y="119.16666666666666" width="561.4035087719298" height="21.666666666666664" as="geometry" />
        </mxCell>
        <mxCell id="YLkG0jEWKR362FTN3VP7-5" value="" style="rounded=0;whiteSpace=wrap;html=1;fillColor=#eeeeee;strokeColor=#36393d;" parent="YLkG0jEWKR362FTN3VP7-10" vertex="1">
          <mxGeometry x="33.68421052631578" y="145.16666666666663" width="561.4035087719298" height="21.666666666666664" as="geometry" />
        </mxCell>
        <mxCell id="YLkG0jEWKR362FTN3VP7-6" value="" style="rounded=0;whiteSpace=wrap;html=1;fillColor=#eeeeee;strokeColor=#36393d;" parent="YLkG0jEWKR362FTN3VP7-10" vertex="1">
          <mxGeometry x="33.68421052631578" y="172.24999999999997" width="492.9396662387676" height="21.666666666666664" as="geometry" />
        </mxCell>
      </root>
    </mxGraphModel>
  </diagram>
  <diagram id="3cJFEfQCzlpgYQPSWkg7" name="UseCase">
    <mxGraphModel dx="33" dy="518" grid="0" gridSize="10" guides="1" tooltips="1" connect="1" arrows="1" fold="1" page="1" pageScale="1" pageWidth="827" pageHeight="1169" math="0" shadow="0">
      <root>
        <mxCell id="0" />
        <mxCell id="1" parent="0" />
        <mxCell id="jy__CYpnF_dNpy6_wQsA-8" style="rounded=0;orthogonalLoop=1;jettySize=auto;html=1;" parent="1" source="jy__CYpnF_dNpy6_wQsA-1" target="jy__CYpnF_dNpy6_wQsA-5" edge="1">
          <mxGeometry relative="1" as="geometry" />
        </mxCell>
        <mxCell id="jy__CYpnF_dNpy6_wQsA-9" style="rounded=0;orthogonalLoop=1;jettySize=auto;html=1;" parent="1" source="jy__CYpnF_dNpy6_wQsA-1" target="jy__CYpnF_dNpy6_wQsA-6" edge="1">
          <mxGeometry relative="1" as="geometry" />
        </mxCell>
        <mxCell id="VJAkXBlDc9VvLzyxX5Um-2" style="rounded=0;orthogonalLoop=1;jettySize=auto;html=1;" parent="1" source="jy__CYpnF_dNpy6_wQsA-1" target="VJAkXBlDc9VvLzyxX5Um-1" edge="1">
          <mxGeometry relative="1" as="geometry" />
        </mxCell>
        <mxCell id="jy__CYpnF_dNpy6_wQsA-1" value="Player" style="shape=umlActor;verticalLabelPosition=bottom;verticalAlign=top;html=1;" parent="1" vertex="1">
          <mxGeometry x="1036" y="195" width="30" height="60" as="geometry" />
        </mxCell>
        <mxCell id="jy__CYpnF_dNpy6_wQsA-3" value="TheLostKey" style="shape=umlFrame;whiteSpace=wrap;html=1;pointerEvents=0;width=110;height=29;" parent="1" vertex="1">
          <mxGeometry x="1155" y="94" width="331" height="225" as="geometry" />
        </mxCell>
        <mxCell id="jy__CYpnF_dNpy6_wQsA-4" value="Gameplay" style="ellipse;whiteSpace=wrap;html=1;" parent="1" vertex="1">
          <mxGeometry x="1350" y="168" width="108" height="39" as="geometry" />
        </mxCell>
        <mxCell id="jy__CYpnF_dNpy6_wQsA-5" value="Material List" style="ellipse;whiteSpace=wrap;html=1;" parent="1" vertex="1">
          <mxGeometry x="1171" y="212" width="109" height="43" as="geometry" />
        </mxCell>
        <mxCell id="jy__CYpnF_dNpy6_wQsA-6" value="Exit Game" style="ellipse;whiteSpace=wrap;html=1;" parent="1" vertex="1">
          <mxGeometry x="1180" y="268" width="93" height="39" as="geometry" />
        </mxCell>
        <mxCell id="mmD0sFUUVUPQiO7DFh8e-1" value="Unlock Material" style="ellipse;whiteSpace=wrap;html=1;" parent="1" vertex="1">
          <mxGeometry x="1269" y="103" width="108" height="39" as="geometry" />
        </mxCell>
        <mxCell id="VJAkXBlDc9VvLzyxX5Um-6" value="&amp;lt;&amp;lt;extends&amp;gt;&amp;gt;" style="rounded=0;orthogonalLoop=1;jettySize=auto;html=1;dashed=1;endArrow=open;endFill=0;" parent="1" source="-nxyqurmbDc0briCFqPB-1" target="jy__CYpnF_dNpy6_wQsA-4" edge="1">
          <mxGeometry relative="1" as="geometry" />
        </mxCell>
        <mxCell id="-nxyqurmbDc0briCFqPB-1" value="Material Detail" style="ellipse;whiteSpace=wrap;html=1;" parent="1" vertex="1">
          <mxGeometry x="1346" y="242" width="108" height="39" as="geometry" />
        </mxCell>
        <mxCell id="-nxyqurmbDc0briCFqPB-2" value="&amp;lt;&amp;lt;include&amp;gt;&amp;gt;" style="html=1;verticalAlign=bottom;labelBackgroundColor=default;endArrow=open;endFill=0;dashed=1;rounded=0;" parent="1" source="mmD0sFUUVUPQiO7DFh8e-1" target="jy__CYpnF_dNpy6_wQsA-4" edge="1">
          <mxGeometry x="0.6148" y="5" width="160" relative="1" as="geometry">
            <mxPoint x="1176" y="345" as="sourcePoint" />
            <mxPoint x="1336" y="345" as="targetPoint" />
            <mxPoint as="offset" />
          </mxGeometry>
        </mxCell>
        <mxCell id="-nxyqurmbDc0briCFqPB-3" value="&amp;lt;&amp;lt;extends&amp;gt;&amp;gt;" style="html=1;verticalAlign=bottom;labelBackgroundColor=none;endArrow=open;endFill=0;dashed=1;rounded=0;" parent="1" source="-nxyqurmbDc0briCFqPB-1" target="jy__CYpnF_dNpy6_wQsA-5" edge="1">
          <mxGeometry x="-0.0903" y="20" width="160" relative="1" as="geometry">
            <mxPoint x="1390" y="224" as="sourcePoint" />
            <mxPoint x="1316" y="235" as="targetPoint" />
            <mxPoint as="offset" />
          </mxGeometry>
        </mxCell>
        <mxCell id="VJAkXBlDc9VvLzyxX5Um-1" value="Stage List" style="ellipse;whiteSpace=wrap;html=1;" parent="1" vertex="1">
          <mxGeometry x="1165" y="148" width="108" height="39" as="geometry" />
        </mxCell>
        <mxCell id="VJAkXBlDc9VvLzyxX5Um-5" value="&amp;lt;&amp;lt;include&amp;gt;&amp;gt;" style="html=1;verticalAlign=bottom;labelBackgroundColor=default;endArrow=open;endFill=0;dashed=1;rounded=0;" parent="1" source="jy__CYpnF_dNpy6_wQsA-4" target="VJAkXBlDc9VvLzyxX5Um-1" edge="1">
          <mxGeometry x="-0.1608" y="16" width="160" relative="1" as="geometry">
            <mxPoint x="1413" y="192" as="sourcePoint" />
            <mxPoint x="1391" y="158" as="targetPoint" />
            <mxPoint as="offset" />
          </mxGeometry>
        </mxCell>
      </root>
    </mxGraphModel>
  </diagram>
  <diagram id="MPBtUaOr_y3MXqttWfIV" name="Activity - Unlock Material">
    <mxGraphModel dx="860" dy="518" grid="1" gridSize="10" guides="1" tooltips="1" connect="1" arrows="1" fold="1" page="1" pageScale="1" pageWidth="827" pageHeight="1169" math="0" shadow="0">
      <root>
        <mxCell id="0" />
        <mxCell id="1" parent="0" />
        <mxCell id="6kAzQsbJE28Ya11VsWZI-1" value="Unlock Material Activity" style="swimlane;childLayout=stackLayout;resizeParent=1;resizeParentMax=0;startSize=20;html=1;" parent="1" vertex="1">
          <mxGeometry x="230.00000000000045" y="30" width="350" height="520" as="geometry" />
        </mxCell>
        <mxCell id="6kAzQsbJE28Ya11VsWZI-13" value="" style="rounded=0;orthogonalLoop=1;jettySize=auto;html=1;" parent="6kAzQsbJE28Ya11VsWZI-1" source="6kAzQsbJE28Ya11VsWZI-5" target="6kAzQsbJE28Ya11VsWZI-9" edge="1">
          <mxGeometry relative="1" as="geometry" />
        </mxCell>
        <mxCell id="6kAzQsbJE28Ya11VsWZI-2" value="Player" style="swimlane;startSize=20;html=1;" parent="6kAzQsbJE28Ya11VsWZI-1" vertex="1">
          <mxGeometry y="20" width="180" height="500" as="geometry" />
        </mxCell>
        <mxCell id="6kAzQsbJE28Ya11VsWZI-3" value="" style="ellipse;html=1;shape=startState;fillColor=#000000;strokeColor=#ff0000;" parent="6kAzQsbJE28Ya11VsWZI-2" vertex="1">
          <mxGeometry x="64.99999999999955" y="25" width="30" height="30" as="geometry" />
        </mxCell>
        <mxCell id="6kAzQsbJE28Ya11VsWZI-4" value="" style="edgeStyle=orthogonalEdgeStyle;html=1;verticalAlign=bottom;endArrow=open;endSize=8;strokeColor=#ff0000;rounded=0;" parent="6kAzQsbJE28Ya11VsWZI-2" source="6kAzQsbJE28Ya11VsWZI-3" target="6kAzQsbJE28Ya11VsWZI-5" edge="1">
          <mxGeometry relative="1" as="geometry">
            <mxPoint x="59.999999999999545" y="85" as="targetPoint" />
          </mxGeometry>
        </mxCell>
        <mxCell id="6kAzQsbJE28Ya11VsWZI-5" value="Play Game" style="rounded=1;whiteSpace=wrap;html=1;arcSize=40;fontColor=#000000;fillColor=#ffffc0;strokeColor=#ff0000;" parent="6kAzQsbJE28Ya11VsWZI-2" vertex="1">
          <mxGeometry x="20" y="70" width="120" height="30" as="geometry" />
        </mxCell>
        <mxCell id="6kAzQsbJE28Ya11VsWZI-8" value="Game" style="swimlane;startSize=20;html=1;" parent="6kAzQsbJE28Ya11VsWZI-1" vertex="1">
          <mxGeometry x="180" y="20" width="170" height="500" as="geometry" />
        </mxCell>
        <mxCell id="6kAzQsbJE28Ya11VsWZI-9" value="Load Gameplay" style="rounded=1;whiteSpace=wrap;html=1;arcSize=40;fontColor=#000000;fillColor=#ffffc0;strokeColor=#ff0000;" parent="6kAzQsbJE28Ya11VsWZI-8" vertex="1">
          <mxGeometry x="25" y="85" width="120" height="30" as="geometry" />
        </mxCell>
        <mxCell id="IiALGhamDIEmAQqTgKuS-22" value="" style="ellipse;html=1;shape=endState;fillColor=#000000;strokeColor=#ff0000;" parent="6kAzQsbJE28Ya11VsWZI-8" vertex="1">
          <mxGeometry x="69.99999999999955" y="460" width="30" height="30" as="geometry" />
        </mxCell>
      </root>
    </mxGraphModel>
  </diagram>
  <diagram id="dxWKsBDLPUIGbHpJYvxE" name="Activity - Play Game">
    <mxGraphModel dx="860" dy="518" grid="1" gridSize="10" guides="1" tooltips="1" connect="1" arrows="1" fold="1" page="1" pageScale="1" pageWidth="827" pageHeight="1169" math="0" shadow="0">
      <root>
        <mxCell id="0" />
        <mxCell id="1" parent="0" />
        <mxCell id="7TJLlJ_hJ4RHdVW59TDU-1" value="Play Game Activity" style="swimlane;childLayout=stackLayout;resizeParent=1;resizeParentMax=0;startSize=20;html=1;" parent="1" vertex="1">
          <mxGeometry x="230.00000000000045" y="30" width="350" height="260" as="geometry" />
        </mxCell>
        <mxCell id="7TJLlJ_hJ4RHdVW59TDU-15" value="" style="edgeStyle=orthogonalEdgeStyle;rounded=0;orthogonalLoop=1;jettySize=auto;html=1;" parent="7TJLlJ_hJ4RHdVW59TDU-1" source="7TJLlJ_hJ4RHdVW59TDU-12" target="7TJLlJ_hJ4RHdVW59TDU-14" edge="1">
          <mxGeometry relative="1" as="geometry">
            <mxPoint x="115" y="165" as="sourcePoint" />
          </mxGeometry>
        </mxCell>
        <mxCell id="7TJLlJ_hJ4RHdVW59TDU-11" value="" style="edgeStyle=orthogonalEdgeStyle;rounded=0;orthogonalLoop=1;jettySize=auto;html=1;" parent="7TJLlJ_hJ4RHdVW59TDU-1" source="7TJLlJ_hJ4RHdVW59TDU-8" target="7TJLlJ_hJ4RHdVW59TDU-10" edge="1">
          <mxGeometry relative="1" as="geometry" />
        </mxCell>
        <mxCell id="7TJLlJ_hJ4RHdVW59TDU-13" value="" style="rounded=0;orthogonalLoop=1;jettySize=auto;html=1;" parent="7TJLlJ_hJ4RHdVW59TDU-1" source="7TJLlJ_hJ4RHdVW59TDU-10" target="7TJLlJ_hJ4RHdVW59TDU-12" edge="1">
          <mxGeometry relative="1" as="geometry" />
        </mxCell>
        <mxCell id="7TJLlJ_hJ4RHdVW59TDU-2" value="Player" style="swimlane;startSize=20;html=1;" parent="7TJLlJ_hJ4RHdVW59TDU-1" vertex="1">
          <mxGeometry y="20" width="180" height="240" as="geometry" />
        </mxCell>
        <mxCell id="7TJLlJ_hJ4RHdVW59TDU-6" value="" style="ellipse;html=1;shape=startState;fillColor=#000000;strokeColor=#ff0000;" parent="7TJLlJ_hJ4RHdVW59TDU-2" vertex="1">
          <mxGeometry x="64.99999999999955" y="30" width="30" height="30" as="geometry" />
        </mxCell>
        <mxCell id="7TJLlJ_hJ4RHdVW59TDU-7" value="" style="edgeStyle=orthogonalEdgeStyle;html=1;verticalAlign=bottom;endArrow=open;endSize=8;strokeColor=#ff0000;rounded=0;" parent="7TJLlJ_hJ4RHdVW59TDU-2" source="7TJLlJ_hJ4RHdVW59TDU-6" target="7TJLlJ_hJ4RHdVW59TDU-8" edge="1">
          <mxGeometry relative="1" as="geometry">
            <mxPoint x="59.999999999999545" y="90" as="targetPoint" />
          </mxGeometry>
        </mxCell>
        <mxCell id="7TJLlJ_hJ4RHdVW59TDU-8" value="Select Play" style="rounded=1;whiteSpace=wrap;html=1;arcSize=40;fontColor=#000000;fillColor=#ffffc0;strokeColor=#ff0000;" parent="7TJLlJ_hJ4RHdVW59TDU-2" vertex="1">
          <mxGeometry x="20" y="90" width="120" height="30" as="geometry" />
        </mxCell>
        <mxCell id="7TJLlJ_hJ4RHdVW59TDU-12" value="Select Stage to Play" style="whiteSpace=wrap;html=1;fillColor=#ffffc0;strokeColor=#ff0000;fontColor=#000000;rounded=1;arcSize=40;" parent="7TJLlJ_hJ4RHdVW59TDU-2" vertex="1">
          <mxGeometry x="20" y="140" width="120" height="30" as="geometry" />
        </mxCell>
        <mxCell id="7TJLlJ_hJ4RHdVW59TDU-3" value="Game" style="swimlane;startSize=20;html=1;" parent="7TJLlJ_hJ4RHdVW59TDU-1" vertex="1">
          <mxGeometry x="180" y="20" width="170" height="240" as="geometry" />
        </mxCell>
        <mxCell id="7TJLlJ_hJ4RHdVW59TDU-10" value="Show Stage Selection Menu" style="rounded=1;whiteSpace=wrap;html=1;arcSize=40;fontColor=#000000;fillColor=#ffffc0;strokeColor=#ff0000;" parent="7TJLlJ_hJ4RHdVW59TDU-3" vertex="1">
          <mxGeometry x="25" y="90" width="120" height="30" as="geometry" />
        </mxCell>
        <mxCell id="7TJLlJ_hJ4RHdVW59TDU-16" style="edgeStyle=orthogonalEdgeStyle;rounded=0;orthogonalLoop=1;jettySize=auto;html=1;" parent="7TJLlJ_hJ4RHdVW59TDU-3" source="7TJLlJ_hJ4RHdVW59TDU-14" target="7TJLlJ_hJ4RHdVW59TDU-5" edge="1">
          <mxGeometry relative="1" as="geometry" />
        </mxCell>
        <mxCell id="7TJLlJ_hJ4RHdVW59TDU-14" value="Show Gameplay" style="whiteSpace=wrap;html=1;fillColor=#ffffc0;strokeColor=#ff0000;fontColor=#000000;rounded=1;arcSize=40;" parent="7TJLlJ_hJ4RHdVW59TDU-3" vertex="1">
          <mxGeometry x="25" y="140" width="120" height="30" as="geometry" />
        </mxCell>
        <mxCell id="7TJLlJ_hJ4RHdVW59TDU-5" value="" style="ellipse;html=1;shape=endState;fillColor=#000000;strokeColor=#ff0000;" parent="7TJLlJ_hJ4RHdVW59TDU-3" vertex="1">
          <mxGeometry x="69.99999999999955" y="205" width="30" height="30" as="geometry" />
        </mxCell>
      </root>
    </mxGraphModel>
  </diagram>
  <diagram id="1WNbkm9FZpdCf9Reqja7" name="Activity - Show Material">
    <mxGraphModel dx="860" dy="520" grid="1" gridSize="10" guides="1" tooltips="1" connect="1" arrows="1" fold="1" page="1" pageScale="1" pageWidth="827" pageHeight="1169" math="0" shadow="0">
      <root>
        <mxCell id="0" />
        <mxCell id="1" parent="0" />
        <mxCell id="7EC_HJcS4_bI20icZUcz-1" value="Show Material Activity" style="swimlane;childLayout=stackLayout;resizeParent=1;resizeParentMax=0;startSize=20;html=1;" parent="1" vertex="1">
          <mxGeometry x="230" y="30" width="340" height="280" as="geometry" />
        </mxCell>
        <mxCell id="7EC_HJcS4_bI20icZUcz-13" value="" style="edgeStyle=orthogonalEdgeStyle;rounded=0;orthogonalLoop=1;jettySize=auto;html=1;" parent="7EC_HJcS4_bI20icZUcz-1" source="7EC_HJcS4_bI20icZUcz-5" target="7EC_HJcS4_bI20icZUcz-9" edge="1">
          <mxGeometry relative="1" as="geometry" />
        </mxCell>
        <mxCell id="7EC_HJcS4_bI20icZUcz-14" value="" style="rounded=0;orthogonalLoop=1;jettySize=auto;html=1;" parent="7EC_HJcS4_bI20icZUcz-1" source="7EC_HJcS4_bI20icZUcz-9" target="7EC_HJcS4_bI20icZUcz-6" edge="1">
          <mxGeometry relative="1" as="geometry" />
        </mxCell>
        <mxCell id="7EC_HJcS4_bI20icZUcz-2" value="Player" style="swimlane;startSize=20;html=1;" parent="7EC_HJcS4_bI20icZUcz-1" vertex="1">
          <mxGeometry y="20" width="180" height="260" as="geometry" />
        </mxCell>
        <mxCell id="7EC_HJcS4_bI20icZUcz-3" value="" style="ellipse;html=1;shape=startState;fillColor=#000000;strokeColor=#ff0000;" parent="7EC_HJcS4_bI20icZUcz-2" vertex="1">
          <mxGeometry x="64.99999999999955" y="20" width="30" height="30" as="geometry" />
        </mxCell>
        <mxCell id="7EC_HJcS4_bI20icZUcz-4" value="" style="edgeStyle=orthogonalEdgeStyle;html=1;verticalAlign=bottom;endArrow=open;endSize=8;strokeColor=#ff0000;rounded=0;" parent="7EC_HJcS4_bI20icZUcz-2" source="7EC_HJcS4_bI20icZUcz-3" target="7EC_HJcS4_bI20icZUcz-5" edge="1">
          <mxGeometry relative="1" as="geometry">
            <mxPoint x="59.999999999999545" y="80" as="targetPoint" />
          </mxGeometry>
        </mxCell>
        <mxCell id="7EC_HJcS4_bI20icZUcz-5" value="Select Play" style="rounded=1;whiteSpace=wrap;html=1;arcSize=40;fontColor=#000000;fillColor=#ffffc0;strokeColor=#ff0000;" parent="7EC_HJcS4_bI20icZUcz-2" vertex="1">
          <mxGeometry x="20" y="69" width="120" height="30" as="geometry" />
        </mxCell>
        <mxCell id="7EC_HJcS4_bI20icZUcz-6" value="Select Cleared Stage" style="whiteSpace=wrap;html=1;fillColor=#ffffc0;strokeColor=#ff0000;fontColor=#000000;rounded=1;arcSize=40;" parent="7EC_HJcS4_bI20icZUcz-2" vertex="1">
          <mxGeometry x="20" y="119" width="120" height="30" as="geometry" />
        </mxCell>
        <mxCell id="gb3eNBtBPWxMuXMwgkJg-5" value="Select Read Material" style="rounded=1;whiteSpace=wrap;html=1;arcSize=40;fontColor=#000000;fillColor=#ffffc0;strokeColor=#ff0000;" parent="7EC_HJcS4_bI20icZUcz-2" vertex="1">
          <mxGeometry x="20" y="169" width="120" height="30" as="geometry" />
        </mxCell>
        <mxCell id="gb3eNBtBPWxMuXMwgkJg-4" style="edgeStyle=orthogonalEdgeStyle;rounded=0;orthogonalLoop=1;jettySize=auto;html=1;" parent="7EC_HJcS4_bI20icZUcz-1" source="7EC_HJcS4_bI20icZUcz-6" target="gb3eNBtBPWxMuXMwgkJg-3" edge="1">
          <mxGeometry relative="1" as="geometry" />
        </mxCell>
        <mxCell id="gb3eNBtBPWxMuXMwgkJg-6" style="rounded=0;orthogonalLoop=1;jettySize=auto;html=1;" parent="7EC_HJcS4_bI20icZUcz-1" source="gb3eNBtBPWxMuXMwgkJg-3" target="gb3eNBtBPWxMuXMwgkJg-5" edge="1">
          <mxGeometry relative="1" as="geometry" />
        </mxCell>
        <mxCell id="7EC_HJcS4_bI20icZUcz-8" value="Game" style="swimlane;startSize=20;html=1;" parent="7EC_HJcS4_bI20icZUcz-1" vertex="1">
          <mxGeometry x="180" y="20" width="160" height="260" as="geometry" />
        </mxCell>
        <mxCell id="7EC_HJcS4_bI20icZUcz-9" value="Show Stage Selection Menu" style="rounded=1;whiteSpace=wrap;html=1;arcSize=40;fontColor=#000000;fillColor=#ffffc0;strokeColor=#ff0000;" parent="7EC_HJcS4_bI20icZUcz-8" vertex="1">
          <mxGeometry x="25" y="69" width="120" height="30" as="geometry" />
        </mxCell>
        <mxCell id="7EC_HJcS4_bI20icZUcz-10" style="edgeStyle=orthogonalEdgeStyle;rounded=0;orthogonalLoop=1;jettySize=auto;html=1;" parent="7EC_HJcS4_bI20icZUcz-8" edge="1">
          <mxGeometry relative="1" as="geometry">
            <mxPoint x="84.99999999999955" y="185" as="sourcePoint" />
          </mxGeometry>
        </mxCell>
        <mxCell id="gb3eNBtBPWxMuXMwgkJg-3" value="Show PlayOrRead Selection Menu" style="rounded=1;whiteSpace=wrap;html=1;arcSize=40;fontColor=#000000;fillColor=#ffffc0;strokeColor=#ff0000;" parent="7EC_HJcS4_bI20icZUcz-8" vertex="1">
          <mxGeometry x="25" y="119" width="120" height="30" as="geometry" />
        </mxCell>
        <mxCell id="gb3eNBtBPWxMuXMwgkJg-11" style="edgeStyle=orthogonalEdgeStyle;rounded=0;orthogonalLoop=1;jettySize=auto;html=1;" parent="7EC_HJcS4_bI20icZUcz-8" source="gb3eNBtBPWxMuXMwgkJg-8" target="gb3eNBtBPWxMuXMwgkJg-10" edge="1">
          <mxGeometry relative="1" as="geometry" />
        </mxCell>
        <mxCell id="gb3eNBtBPWxMuXMwgkJg-8" value="Show Stage Material" style="rounded=1;whiteSpace=wrap;html=1;arcSize=40;fontColor=#000000;fillColor=#ffffc0;strokeColor=#ff0000;" parent="7EC_HJcS4_bI20icZUcz-8" vertex="1">
          <mxGeometry x="25" y="169" width="120" height="30" as="geometry" />
        </mxCell>
        <mxCell id="gb3eNBtBPWxMuXMwgkJg-10" value="" style="ellipse;html=1;shape=endState;fillColor=#000000;strokeColor=#ff0000;" parent="7EC_HJcS4_bI20icZUcz-8" vertex="1">
          <mxGeometry x="70" y="220" width="30" height="30" as="geometry" />
        </mxCell>
        <mxCell id="gb3eNBtBPWxMuXMwgkJg-9" style="edgeStyle=orthogonalEdgeStyle;rounded=0;orthogonalLoop=1;jettySize=auto;html=1;" parent="7EC_HJcS4_bI20icZUcz-1" source="gb3eNBtBPWxMuXMwgkJg-5" target="gb3eNBtBPWxMuXMwgkJg-8" edge="1">
          <mxGeometry relative="1" as="geometry" />
        </mxCell>
      </root>
    </mxGraphModel>
  </diagram>
  <diagram name="Activity - Change Option" id="qG4CuJRk5Nmg9eK7O15K">
    <mxGraphModel dx="860" dy="520" grid="1" gridSize="10" guides="1" tooltips="1" connect="1" arrows="1" fold="1" page="1" pageScale="1" pageWidth="827" pageHeight="1169" math="0" shadow="0">
      <root>
        <mxCell id="vfzwC4YmCC3DbTav1h0I-0" />
        <mxCell id="vfzwC4YmCC3DbTav1h0I-1" parent="vfzwC4YmCC3DbTav1h0I-0" />
        <mxCell id="vfzwC4YmCC3DbTav1h0I-2" value="Show Material Activity" style="swimlane;childLayout=stackLayout;resizeParent=1;resizeParentMax=0;startSize=20;html=1;" vertex="1" parent="vfzwC4YmCC3DbTav1h0I-1">
          <mxGeometry x="230" y="30" width="340" height="280" as="geometry" />
        </mxCell>
        <mxCell id="vfzwC4YmCC3DbTav1h0I-3" value="" style="edgeStyle=orthogonalEdgeStyle;rounded=0;orthogonalLoop=1;jettySize=auto;html=1;" edge="1" parent="vfzwC4YmCC3DbTav1h0I-2" source="vfzwC4YmCC3DbTav1h0I-8" target="vfzwC4YmCC3DbTav1h0I-14">
          <mxGeometry relative="1" as="geometry" />
        </mxCell>
        <mxCell id="vfzwC4YmCC3DbTav1h0I-4" value="" style="rounded=0;orthogonalLoop=1;jettySize=auto;html=1;" edge="1" parent="vfzwC4YmCC3DbTav1h0I-2" source="vfzwC4YmCC3DbTav1h0I-14" target="vfzwC4YmCC3DbTav1h0I-9">
          <mxGeometry relative="1" as="geometry" />
        </mxCell>
        <mxCell id="vfzwC4YmCC3DbTav1h0I-5" value="Player" style="swimlane;startSize=20;html=1;" vertex="1" parent="vfzwC4YmCC3DbTav1h0I-2">
          <mxGeometry y="20" width="180" height="260" as="geometry" />
        </mxCell>
        <mxCell id="vfzwC4YmCC3DbTav1h0I-6" value="" style="ellipse;html=1;shape=startState;fillColor=#000000;strokeColor=#ff0000;" vertex="1" parent="vfzwC4YmCC3DbTav1h0I-5">
          <mxGeometry x="64.99999999999955" y="20" width="30" height="30" as="geometry" />
        </mxCell>
        <mxCell id="vfzwC4YmCC3DbTav1h0I-7" value="" style="edgeStyle=orthogonalEdgeStyle;html=1;verticalAlign=bottom;endArrow=open;endSize=8;strokeColor=#ff0000;rounded=0;" edge="1" parent="vfzwC4YmCC3DbTav1h0I-5" source="vfzwC4YmCC3DbTav1h0I-6" target="vfzwC4YmCC3DbTav1h0I-8">
          <mxGeometry relative="1" as="geometry">
            <mxPoint x="59.999999999999545" y="80" as="targetPoint" />
          </mxGeometry>
        </mxCell>
        <mxCell id="vfzwC4YmCC3DbTav1h0I-8" value="Select Option" style="rounded=1;whiteSpace=wrap;html=1;arcSize=40;fontColor=#000000;fillColor=#ffffc0;strokeColor=#ff0000;" vertex="1" parent="vfzwC4YmCC3DbTav1h0I-5">
          <mxGeometry x="20" y="69" width="120" height="30" as="geometry" />
        </mxCell>
        <mxCell id="vfzwC4YmCC3DbTav1h0I-9" value="Select Cleared Stage" style="whiteSpace=wrap;html=1;fillColor=#ffffc0;strokeColor=#ff0000;fontColor=#000000;rounded=1;arcSize=40;" vertex="1" parent="vfzwC4YmCC3DbTav1h0I-5">
          <mxGeometry x="20" y="119" width="120" height="30" as="geometry" />
        </mxCell>
        <mxCell id="vfzwC4YmCC3DbTav1h0I-10" value="Select Read Material" style="rounded=1;whiteSpace=wrap;html=1;arcSize=40;fontColor=#000000;fillColor=#ffffc0;strokeColor=#ff0000;" vertex="1" parent="vfzwC4YmCC3DbTav1h0I-5">
          <mxGeometry x="20" y="169" width="120" height="30" as="geometry" />
        </mxCell>
        <mxCell id="vfzwC4YmCC3DbTav1h0I-11" style="edgeStyle=orthogonalEdgeStyle;rounded=0;orthogonalLoop=1;jettySize=auto;html=1;" edge="1" parent="vfzwC4YmCC3DbTav1h0I-2" source="vfzwC4YmCC3DbTav1h0I-9" target="vfzwC4YmCC3DbTav1h0I-16">
          <mxGeometry relative="1" as="geometry" />
        </mxCell>
        <mxCell id="vfzwC4YmCC3DbTav1h0I-12" style="rounded=0;orthogonalLoop=1;jettySize=auto;html=1;" edge="1" parent="vfzwC4YmCC3DbTav1h0I-2" source="vfzwC4YmCC3DbTav1h0I-16" target="vfzwC4YmCC3DbTav1h0I-10">
          <mxGeometry relative="1" as="geometry" />
        </mxCell>
        <mxCell id="vfzwC4YmCC3DbTav1h0I-13" value="Game" style="swimlane;startSize=20;html=1;" vertex="1" parent="vfzwC4YmCC3DbTav1h0I-2">
          <mxGeometry x="180" y="20" width="160" height="260" as="geometry" />
        </mxCell>
        <mxCell id="vfzwC4YmCC3DbTav1h0I-14" value="Show Option Menu" style="rounded=1;whiteSpace=wrap;html=1;arcSize=40;fontColor=#000000;fillColor=#ffffc0;strokeColor=#ff0000;" vertex="1" parent="vfzwC4YmCC3DbTav1h0I-13">
          <mxGeometry x="25" y="69" width="120" height="30" as="geometry" />
        </mxCell>
        <mxCell id="vfzwC4YmCC3DbTav1h0I-15" style="edgeStyle=orthogonalEdgeStyle;rounded=0;orthogonalLoop=1;jettySize=auto;html=1;" edge="1" parent="vfzwC4YmCC3DbTav1h0I-13">
          <mxGeometry relative="1" as="geometry">
            <mxPoint x="84.99999999999955" y="185" as="sourcePoint" />
          </mxGeometry>
        </mxCell>
        <mxCell id="vfzwC4YmCC3DbTav1h0I-16" value="Show PlayOrRead Selection Menu" style="rounded=1;whiteSpace=wrap;html=1;arcSize=40;fontColor=#000000;fillColor=#ffffc0;strokeColor=#ff0000;" vertex="1" parent="vfzwC4YmCC3DbTav1h0I-13">
          <mxGeometry x="25" y="119" width="120" height="30" as="geometry" />
        </mxCell>
        <mxCell id="vfzwC4YmCC3DbTav1h0I-17" style="edgeStyle=orthogonalEdgeStyle;rounded=0;orthogonalLoop=1;jettySize=auto;html=1;" edge="1" parent="vfzwC4YmCC3DbTav1h0I-13" source="vfzwC4YmCC3DbTav1h0I-18" target="vfzwC4YmCC3DbTav1h0I-19">
          <mxGeometry relative="1" as="geometry" />
        </mxCell>
        <mxCell id="vfzwC4YmCC3DbTav1h0I-18" value="Show Stage Material" style="rounded=1;whiteSpace=wrap;html=1;arcSize=40;fontColor=#000000;fillColor=#ffffc0;strokeColor=#ff0000;" vertex="1" parent="vfzwC4YmCC3DbTav1h0I-13">
          <mxGeometry x="25" y="169" width="120" height="30" as="geometry" />
        </mxCell>
        <mxCell id="vfzwC4YmCC3DbTav1h0I-19" value="" style="ellipse;html=1;shape=endState;fillColor=#000000;strokeColor=#ff0000;" vertex="1" parent="vfzwC4YmCC3DbTav1h0I-13">
          <mxGeometry x="70" y="220" width="30" height="30" as="geometry" />
        </mxCell>
        <mxCell id="vfzwC4YmCC3DbTav1h0I-20" style="edgeStyle=orthogonalEdgeStyle;rounded=0;orthogonalLoop=1;jettySize=auto;html=1;" edge="1" parent="vfzwC4YmCC3DbTav1h0I-2" source="vfzwC4YmCC3DbTav1h0I-10" target="vfzwC4YmCC3DbTav1h0I-18">
          <mxGeometry relative="1" as="geometry" />
        </mxCell>
      </root>
    </mxGraphModel>
  </diagram>
  <diagram id="7yYTyZhRh0QpTJxbh4JS" name="Game Data ERD">
    <mxGraphModel dx="1012" dy="612" grid="1" gridSize="10" guides="1" tooltips="1" connect="1" arrows="1" fold="1" page="1" pageScale="1" pageWidth="827" pageHeight="1169" math="0" shadow="0">
      <root>
        <mxCell id="0" />
        <mxCell id="1" parent="0" />
        <mxCell id="HfOo1KJsSYf26AiCGGfl-70" value="Progress" style="shape=table;startSize=30;container=1;collapsible=1;childLayout=tableLayout;fixedRows=1;rowLines=0;fontStyle=1;align=center;resizeLast=1;html=1;" parent="1" vertex="1">
          <mxGeometry x="200" y="60" width="180" height="60" as="geometry" />
        </mxCell>
        <mxCell id="HfOo1KJsSYf26AiCGGfl-74" value="" style="shape=tableRow;horizontal=0;startSize=0;swimlaneHead=0;swimlaneBody=0;fillColor=none;collapsible=0;dropTarget=0;points=[[0,0.5],[1,0.5]];portConstraint=eastwest;top=0;left=0;right=0;bottom=0;" parent="HfOo1KJsSYf26AiCGGfl-70" vertex="1">
          <mxGeometry y="30" width="180" height="30" as="geometry" />
        </mxCell>
        <mxCell id="HfOo1KJsSYf26AiCGGfl-75" value="FK" style="shape=partialRectangle;connectable=0;fillColor=none;top=0;left=0;bottom=0;right=0;editable=1;overflow=hidden;whiteSpace=wrap;html=1;" parent="HfOo1KJsSYf26AiCGGfl-74" vertex="1">
          <mxGeometry width="30" height="30" as="geometry">
            <mxRectangle width="30" height="30" as="alternateBounds" />
          </mxGeometry>
        </mxCell>
        <mxCell id="HfOo1KJsSYf26AiCGGfl-76" value="MateriID: Int" style="shape=partialRectangle;connectable=0;fillColor=none;top=0;left=0;bottom=0;right=0;align=left;spacingLeft=6;overflow=hidden;whiteSpace=wrap;html=1;" parent="HfOo1KJsSYf26AiCGGfl-74" vertex="1">
          <mxGeometry x="30" width="150" height="30" as="geometry">
            <mxRectangle width="150" height="30" as="alternateBounds" />
          </mxGeometry>
        </mxCell>
        <mxCell id="S1eFWZsZZw3ts-SnHiQv-1" value="Stage" style="shape=table;startSize=30;container=1;collapsible=1;childLayout=tableLayout;fixedRows=1;rowLines=0;fontStyle=1;align=center;resizeLast=1;html=1;" vertex="1" parent="1">
          <mxGeometry x="420" y="60" width="180" height="120" as="geometry" />
        </mxCell>
        <mxCell id="S1eFWZsZZw3ts-SnHiQv-2" value="" style="shape=tableRow;horizontal=0;startSize=0;swimlaneHead=0;swimlaneBody=0;fillColor=none;collapsible=0;dropTarget=0;points=[[0,0.5],[1,0.5]];portConstraint=eastwest;top=0;left=0;right=0;bottom=0;" vertex="1" parent="S1eFWZsZZw3ts-SnHiQv-1">
          <mxGeometry y="30" width="180" height="30" as="geometry" />
        </mxCell>
        <mxCell id="S1eFWZsZZw3ts-SnHiQv-3" value="PK" style="shape=partialRectangle;connectable=0;fillColor=none;top=0;left=0;bottom=0;right=0;editable=1;overflow=hidden;whiteSpace=wrap;html=1;" vertex="1" parent="S1eFWZsZZw3ts-SnHiQv-2">
          <mxGeometry width="30" height="30" as="geometry">
            <mxRectangle width="30" height="30" as="alternateBounds" />
          </mxGeometry>
        </mxCell>
        <mxCell id="S1eFWZsZZw3ts-SnHiQv-4" value="ID: Int" style="shape=partialRectangle;connectable=0;fillColor=none;top=0;left=0;bottom=0;right=0;align=left;spacingLeft=6;overflow=hidden;whiteSpace=wrap;html=1;" vertex="1" parent="S1eFWZsZZw3ts-SnHiQv-2">
          <mxGeometry x="30" width="150" height="30" as="geometry">
            <mxRectangle width="150" height="30" as="alternateBounds" />
          </mxGeometry>
        </mxCell>
        <mxCell id="S1eFWZsZZw3ts-SnHiQv-5" value="" style="shape=tableRow;horizontal=0;startSize=0;swimlaneHead=0;swimlaneBody=0;fillColor=none;collapsible=0;dropTarget=0;points=[[0,0.5],[1,0.5]];portConstraint=eastwest;top=0;left=0;right=0;bottom=0;" vertex="1" parent="S1eFWZsZZw3ts-SnHiQv-1">
          <mxGeometry y="60" width="180" height="30" as="geometry" />
        </mxCell>
        <mxCell id="S1eFWZsZZw3ts-SnHiQv-6" value="" style="shape=partialRectangle;connectable=0;fillColor=none;top=0;left=0;bottom=0;right=0;editable=1;overflow=hidden;whiteSpace=wrap;html=1;" vertex="1" parent="S1eFWZsZZw3ts-SnHiQv-5">
          <mxGeometry width="30" height="30" as="geometry">
            <mxRectangle width="30" height="30" as="alternateBounds" />
          </mxGeometry>
        </mxCell>
        <mxCell id="S1eFWZsZZw3ts-SnHiQv-7" value="Title: String" style="shape=partialRectangle;connectable=0;fillColor=none;top=0;left=0;bottom=0;right=0;align=left;spacingLeft=6;overflow=hidden;whiteSpace=wrap;html=1;" vertex="1" parent="S1eFWZsZZw3ts-SnHiQv-5">
          <mxGeometry x="30" width="150" height="30" as="geometry">
            <mxRectangle width="150" height="30" as="alternateBounds" />
          </mxGeometry>
        </mxCell>
        <mxCell id="S1eFWZsZZw3ts-SnHiQv-8" value="" style="shape=tableRow;horizontal=0;startSize=0;swimlaneHead=0;swimlaneBody=0;fillColor=none;collapsible=0;dropTarget=0;points=[[0,0.5],[1,0.5]];portConstraint=eastwest;top=0;left=0;right=0;bottom=0;" vertex="1" parent="S1eFWZsZZw3ts-SnHiQv-1">
          <mxGeometry y="90" width="180" height="30" as="geometry" />
        </mxCell>
        <mxCell id="S1eFWZsZZw3ts-SnHiQv-9" value="" style="shape=partialRectangle;connectable=0;fillColor=none;top=0;left=0;bottom=0;right=0;editable=1;overflow=hidden;whiteSpace=wrap;html=1;" vertex="1" parent="S1eFWZsZZw3ts-SnHiQv-8">
          <mxGeometry width="30" height="30" as="geometry">
            <mxRectangle width="30" height="30" as="alternateBounds" />
          </mxGeometry>
        </mxCell>
        <mxCell id="S1eFWZsZZw3ts-SnHiQv-10" value="IsTutorial: Boolean" style="shape=partialRectangle;connectable=0;fillColor=none;top=0;left=0;bottom=0;right=0;align=left;spacingLeft=6;overflow=hidden;whiteSpace=wrap;html=1;" vertex="1" parent="S1eFWZsZZw3ts-SnHiQv-8">
          <mxGeometry x="30" width="150" height="30" as="geometry">
            <mxRectangle width="150" height="30" as="alternateBounds" />
          </mxGeometry>
        </mxCell>
        <mxCell id="S1eFWZsZZw3ts-SnHiQv-14" style="edgeStyle=orthogonalEdgeStyle;rounded=0;orthogonalLoop=1;jettySize=auto;html=1;startArrow=ERone;startFill=0;endArrow=ERone;endFill=0;" edge="1" parent="1" source="HfOo1KJsSYf26AiCGGfl-74" target="S1eFWZsZZw3ts-SnHiQv-2">
          <mxGeometry relative="1" as="geometry" />
        </mxCell>
        <mxCell id="S1eFWZsZZw3ts-SnHiQv-15" value="Content" style="shape=table;startSize=30;container=1;collapsible=1;childLayout=tableLayout;fixedRows=1;rowLines=0;fontStyle=1;align=center;resizeLast=1;html=1;" vertex="1" parent="1">
          <mxGeometry x="650" y="80" width="180" height="180" as="geometry" />
        </mxCell>
        <mxCell id="S1eFWZsZZw3ts-SnHiQv-16" value="" style="shape=tableRow;horizontal=0;startSize=0;swimlaneHead=0;swimlaneBody=0;fillColor=none;collapsible=0;dropTarget=0;points=[[0,0.5],[1,0.5]];portConstraint=eastwest;top=0;left=0;right=0;bottom=0;" vertex="1" parent="S1eFWZsZZw3ts-SnHiQv-15">
          <mxGeometry y="30" width="180" height="30" as="geometry" />
        </mxCell>
        <mxCell id="S1eFWZsZZw3ts-SnHiQv-17" value="PK" style="shape=partialRectangle;connectable=0;fillColor=none;top=0;left=0;bottom=0;right=0;editable=1;overflow=hidden;whiteSpace=wrap;html=1;" vertex="1" parent="S1eFWZsZZw3ts-SnHiQv-16">
          <mxGeometry width="30" height="30" as="geometry">
            <mxRectangle width="30" height="30" as="alternateBounds" />
          </mxGeometry>
        </mxCell>
        <mxCell id="S1eFWZsZZw3ts-SnHiQv-18" value="ID: Int" style="shape=partialRectangle;connectable=0;fillColor=none;top=0;left=0;bottom=0;right=0;align=left;spacingLeft=6;overflow=hidden;whiteSpace=wrap;html=1;" vertex="1" parent="S1eFWZsZZw3ts-SnHiQv-16">
          <mxGeometry x="30" width="150" height="30" as="geometry">
            <mxRectangle width="150" height="30" as="alternateBounds" />
          </mxGeometry>
        </mxCell>
        <mxCell id="S1eFWZsZZw3ts-SnHiQv-19" value="" style="shape=tableRow;horizontal=0;startSize=0;swimlaneHead=0;swimlaneBody=0;fillColor=none;collapsible=0;dropTarget=0;points=[[0,0.5],[1,0.5]];portConstraint=eastwest;top=0;left=0;right=0;bottom=0;" vertex="1" parent="S1eFWZsZZw3ts-SnHiQv-15">
          <mxGeometry y="60" width="180" height="30" as="geometry" />
        </mxCell>
        <mxCell id="S1eFWZsZZw3ts-SnHiQv-20" value="" style="shape=partialRectangle;connectable=0;fillColor=none;top=0;left=0;bottom=0;right=0;editable=1;overflow=hidden;whiteSpace=wrap;html=1;" vertex="1" parent="S1eFWZsZZw3ts-SnHiQv-19">
          <mxGeometry width="30" height="30" as="geometry">
            <mxRectangle width="30" height="30" as="alternateBounds" />
          </mxGeometry>
        </mxCell>
        <mxCell id="S1eFWZsZZw3ts-SnHiQv-21" value="Chapter: String" style="shape=partialRectangle;connectable=0;fillColor=none;top=0;left=0;bottom=0;right=0;align=left;spacingLeft=6;overflow=hidden;whiteSpace=wrap;html=1;" vertex="1" parent="S1eFWZsZZw3ts-SnHiQv-19">
          <mxGeometry x="30" width="150" height="30" as="geometry">
            <mxRectangle width="150" height="30" as="alternateBounds" />
          </mxGeometry>
        </mxCell>
        <mxCell id="S1eFWZsZZw3ts-SnHiQv-22" value="" style="shape=tableRow;horizontal=0;startSize=0;swimlaneHead=0;swimlaneBody=0;fillColor=none;collapsible=0;dropTarget=0;points=[[0,0.5],[1,0.5]];portConstraint=eastwest;top=0;left=0;right=0;bottom=0;" vertex="1" parent="S1eFWZsZZw3ts-SnHiQv-15">
          <mxGeometry y="90" width="180" height="30" as="geometry" />
        </mxCell>
        <mxCell id="S1eFWZsZZw3ts-SnHiQv-23" value="" style="shape=partialRectangle;connectable=0;fillColor=none;top=0;left=0;bottom=0;right=0;editable=1;overflow=hidden;whiteSpace=wrap;html=1;" vertex="1" parent="S1eFWZsZZw3ts-SnHiQv-22">
          <mxGeometry width="30" height="30" as="geometry">
            <mxRectangle width="30" height="30" as="alternateBounds" />
          </mxGeometry>
        </mxCell>
        <mxCell id="S1eFWZsZZw3ts-SnHiQv-24" value="Text: String" style="shape=partialRectangle;connectable=0;fillColor=none;top=0;left=0;bottom=0;right=0;align=left;spacingLeft=6;overflow=hidden;whiteSpace=wrap;html=1;" vertex="1" parent="S1eFWZsZZw3ts-SnHiQv-22">
          <mxGeometry x="30" width="150" height="30" as="geometry">
            <mxRectangle width="150" height="30" as="alternateBounds" />
          </mxGeometry>
        </mxCell>
        <mxCell id="S1eFWZsZZw3ts-SnHiQv-29" value="" style="shape=tableRow;horizontal=0;startSize=0;swimlaneHead=0;swimlaneBody=0;fillColor=none;collapsible=0;dropTarget=0;points=[[0,0.5],[1,0.5]];portConstraint=eastwest;top=0;left=0;right=0;bottom=0;" vertex="1" parent="S1eFWZsZZw3ts-SnHiQv-15">
          <mxGeometry y="120" width="180" height="30" as="geometry" />
        </mxCell>
        <mxCell id="S1eFWZsZZw3ts-SnHiQv-30" value="" style="shape=partialRectangle;connectable=0;fillColor=none;top=0;left=0;bottom=0;right=0;editable=1;overflow=hidden;whiteSpace=wrap;html=1;" vertex="1" parent="S1eFWZsZZw3ts-SnHiQv-29">
          <mxGeometry width="30" height="30" as="geometry">
            <mxRectangle width="30" height="30" as="alternateBounds" />
          </mxGeometry>
        </mxCell>
        <mxCell id="S1eFWZsZZw3ts-SnHiQv-31" value="Introduction: Booelan" style="shape=partialRectangle;connectable=0;fillColor=none;top=0;left=0;bottom=0;right=0;align=left;spacingLeft=6;overflow=hidden;whiteSpace=wrap;html=1;" vertex="1" parent="S1eFWZsZZw3ts-SnHiQv-29">
          <mxGeometry x="30" width="150" height="30" as="geometry">
            <mxRectangle width="150" height="30" as="alternateBounds" />
          </mxGeometry>
        </mxCell>
        <mxCell id="S1eFWZsZZw3ts-SnHiQv-25" value="" style="shape=tableRow;horizontal=0;startSize=0;swimlaneHead=0;swimlaneBody=0;fillColor=none;collapsible=0;dropTarget=0;points=[[0,0.5],[1,0.5]];portConstraint=eastwest;top=0;left=0;right=0;bottom=0;" vertex="1" parent="S1eFWZsZZw3ts-SnHiQv-15">
          <mxGeometry y="150" width="180" height="30" as="geometry" />
        </mxCell>
        <mxCell id="S1eFWZsZZw3ts-SnHiQv-26" value="FK" style="shape=partialRectangle;connectable=0;fillColor=none;top=0;left=0;bottom=0;right=0;editable=1;overflow=hidden;whiteSpace=wrap;html=1;" vertex="1" parent="S1eFWZsZZw3ts-SnHiQv-25">
          <mxGeometry width="30" height="30" as="geometry">
            <mxRectangle width="30" height="30" as="alternateBounds" />
          </mxGeometry>
        </mxCell>
        <mxCell id="S1eFWZsZZw3ts-SnHiQv-27" value="StageID: Int" style="shape=partialRectangle;connectable=0;fillColor=none;top=0;left=0;bottom=0;right=0;align=left;spacingLeft=6;overflow=hidden;whiteSpace=wrap;html=1;" vertex="1" parent="S1eFWZsZZw3ts-SnHiQv-25">
          <mxGeometry x="30" width="150" height="30" as="geometry">
            <mxRectangle width="150" height="30" as="alternateBounds" />
          </mxGeometry>
        </mxCell>
        <mxCell id="S1eFWZsZZw3ts-SnHiQv-28" style="edgeStyle=orthogonalEdgeStyle;rounded=0;orthogonalLoop=1;jettySize=auto;html=1;endArrow=ERone;endFill=0;startArrow=ERmany;startFill=0;" edge="1" parent="1" source="S1eFWZsZZw3ts-SnHiQv-25" target="S1eFWZsZZw3ts-SnHiQv-2">
          <mxGeometry relative="1" as="geometry" />
        </mxCell>
        <mxCell id="S1eFWZsZZw3ts-SnHiQv-32" value="Question" style="shape=table;startSize=30;container=1;collapsible=1;childLayout=tableLayout;fixedRows=1;rowLines=0;fontStyle=1;align=center;resizeLast=1;html=1;" vertex="1" parent="1">
          <mxGeometry x="200" y="130" width="180" height="120" as="geometry" />
        </mxCell>
        <mxCell id="S1eFWZsZZw3ts-SnHiQv-33" value="" style="shape=tableRow;horizontal=0;startSize=0;swimlaneHead=0;swimlaneBody=0;fillColor=none;collapsible=0;dropTarget=0;points=[[0,0.5],[1,0.5]];portConstraint=eastwest;top=0;left=0;right=0;bottom=0;" vertex="1" parent="S1eFWZsZZw3ts-SnHiQv-32">
          <mxGeometry y="30" width="180" height="30" as="geometry" />
        </mxCell>
        <mxCell id="S1eFWZsZZw3ts-SnHiQv-34" value="PK" style="shape=partialRectangle;connectable=0;fillColor=none;top=0;left=0;bottom=0;right=0;editable=1;overflow=hidden;whiteSpace=wrap;html=1;" vertex="1" parent="S1eFWZsZZw3ts-SnHiQv-33">
          <mxGeometry width="30" height="30" as="geometry">
            <mxRectangle width="30" height="30" as="alternateBounds" />
          </mxGeometry>
        </mxCell>
        <mxCell id="S1eFWZsZZw3ts-SnHiQv-35" value="ID: Int" style="shape=partialRectangle;connectable=0;fillColor=none;top=0;left=0;bottom=0;right=0;align=left;spacingLeft=6;overflow=hidden;whiteSpace=wrap;html=1;" vertex="1" parent="S1eFWZsZZw3ts-SnHiQv-33">
          <mxGeometry x="30" width="150" height="30" as="geometry">
            <mxRectangle width="150" height="30" as="alternateBounds" />
          </mxGeometry>
        </mxCell>
        <mxCell id="S1eFWZsZZw3ts-SnHiQv-39" value="" style="shape=tableRow;horizontal=0;startSize=0;swimlaneHead=0;swimlaneBody=0;fillColor=none;collapsible=0;dropTarget=0;points=[[0,0.5],[1,0.5]];portConstraint=eastwest;top=0;left=0;right=0;bottom=0;" vertex="1" parent="S1eFWZsZZw3ts-SnHiQv-32">
          <mxGeometry y="60" width="180" height="30" as="geometry" />
        </mxCell>
        <mxCell id="S1eFWZsZZw3ts-SnHiQv-40" value="" style="shape=partialRectangle;connectable=0;fillColor=none;top=0;left=0;bottom=0;right=0;editable=1;overflow=hidden;whiteSpace=wrap;html=1;" vertex="1" parent="S1eFWZsZZw3ts-SnHiQv-39">
          <mxGeometry width="30" height="30" as="geometry">
            <mxRectangle width="30" height="30" as="alternateBounds" />
          </mxGeometry>
        </mxCell>
        <mxCell id="S1eFWZsZZw3ts-SnHiQv-41" value="Text: String" style="shape=partialRectangle;connectable=0;fillColor=none;top=0;left=0;bottom=0;right=0;align=left;spacingLeft=6;overflow=hidden;whiteSpace=wrap;html=1;" vertex="1" parent="S1eFWZsZZw3ts-SnHiQv-39">
          <mxGeometry x="30" width="150" height="30" as="geometry">
            <mxRectangle width="150" height="30" as="alternateBounds" />
          </mxGeometry>
        </mxCell>
        <mxCell id="S1eFWZsZZw3ts-SnHiQv-45" value="" style="shape=tableRow;horizontal=0;startSize=0;swimlaneHead=0;swimlaneBody=0;fillColor=none;collapsible=0;dropTarget=0;points=[[0,0.5],[1,0.5]];portConstraint=eastwest;top=0;left=0;right=0;bottom=0;" vertex="1" parent="S1eFWZsZZw3ts-SnHiQv-32">
          <mxGeometry y="90" width="180" height="30" as="geometry" />
        </mxCell>
        <mxCell id="S1eFWZsZZw3ts-SnHiQv-46" value="FK" style="shape=partialRectangle;connectable=0;fillColor=none;top=0;left=0;bottom=0;right=0;editable=1;overflow=hidden;whiteSpace=wrap;html=1;" vertex="1" parent="S1eFWZsZZw3ts-SnHiQv-45">
          <mxGeometry width="30" height="30" as="geometry">
            <mxRectangle width="30" height="30" as="alternateBounds" />
          </mxGeometry>
        </mxCell>
        <mxCell id="S1eFWZsZZw3ts-SnHiQv-47" value="StageID: Int" style="shape=partialRectangle;connectable=0;fillColor=none;top=0;left=0;bottom=0;right=0;align=left;spacingLeft=6;overflow=hidden;whiteSpace=wrap;html=1;" vertex="1" parent="S1eFWZsZZw3ts-SnHiQv-45">
          <mxGeometry x="30" width="150" height="30" as="geometry">
            <mxRectangle width="150" height="30" as="alternateBounds" />
          </mxGeometry>
        </mxCell>
        <mxCell id="S1eFWZsZZw3ts-SnHiQv-48" style="edgeStyle=orthogonalEdgeStyle;rounded=0;orthogonalLoop=1;jettySize=auto;html=1;endArrow=ERone;endFill=0;startArrow=ERmany;startFill=0;" edge="1" parent="1" source="S1eFWZsZZw3ts-SnHiQv-45" target="S1eFWZsZZw3ts-SnHiQv-2">
          <mxGeometry relative="1" as="geometry">
            <Array as="points">
              <mxPoint x="400" y="235" />
              <mxPoint x="400" y="105" />
            </Array>
          </mxGeometry>
        </mxCell>
        <mxCell id="S1eFWZsZZw3ts-SnHiQv-49" value="Answer" style="shape=table;startSize=30;container=1;collapsible=1;childLayout=tableLayout;fixedRows=1;rowLines=0;fontStyle=1;align=center;resizeLast=1;html=1;" vertex="1" parent="1">
          <mxGeometry x="430" y="190" width="180" height="150" as="geometry" />
        </mxCell>
        <mxCell id="S1eFWZsZZw3ts-SnHiQv-50" value="" style="shape=tableRow;horizontal=0;startSize=0;swimlaneHead=0;swimlaneBody=0;fillColor=none;collapsible=0;dropTarget=0;points=[[0,0.5],[1,0.5]];portConstraint=eastwest;top=0;left=0;right=0;bottom=0;" vertex="1" parent="S1eFWZsZZw3ts-SnHiQv-49">
          <mxGeometry y="30" width="180" height="30" as="geometry" />
        </mxCell>
        <mxCell id="S1eFWZsZZw3ts-SnHiQv-51" value="PK" style="shape=partialRectangle;connectable=0;fillColor=none;top=0;left=0;bottom=0;right=0;editable=1;overflow=hidden;whiteSpace=wrap;html=1;" vertex="1" parent="S1eFWZsZZw3ts-SnHiQv-50">
          <mxGeometry width="30" height="30" as="geometry">
            <mxRectangle width="30" height="30" as="alternateBounds" />
          </mxGeometry>
        </mxCell>
        <mxCell id="S1eFWZsZZw3ts-SnHiQv-52" value="ID: Int" style="shape=partialRectangle;connectable=0;fillColor=none;top=0;left=0;bottom=0;right=0;align=left;spacingLeft=6;overflow=hidden;whiteSpace=wrap;html=1;" vertex="1" parent="S1eFWZsZZw3ts-SnHiQv-50">
          <mxGeometry x="30" width="150" height="30" as="geometry">
            <mxRectangle width="150" height="30" as="alternateBounds" />
          </mxGeometry>
        </mxCell>
        <mxCell id="S1eFWZsZZw3ts-SnHiQv-53" value="" style="shape=tableRow;horizontal=0;startSize=0;swimlaneHead=0;swimlaneBody=0;fillColor=none;collapsible=0;dropTarget=0;points=[[0,0.5],[1,0.5]];portConstraint=eastwest;top=0;left=0;right=0;bottom=0;" vertex="1" parent="S1eFWZsZZw3ts-SnHiQv-49">
          <mxGeometry y="60" width="180" height="30" as="geometry" />
        </mxCell>
        <mxCell id="S1eFWZsZZw3ts-SnHiQv-54" value="" style="shape=partialRectangle;connectable=0;fillColor=none;top=0;left=0;bottom=0;right=0;editable=1;overflow=hidden;whiteSpace=wrap;html=1;" vertex="1" parent="S1eFWZsZZw3ts-SnHiQv-53">
          <mxGeometry width="30" height="30" as="geometry">
            <mxRectangle width="30" height="30" as="alternateBounds" />
          </mxGeometry>
        </mxCell>
        <mxCell id="S1eFWZsZZw3ts-SnHiQv-55" value="Text: String" style="shape=partialRectangle;connectable=0;fillColor=none;top=0;left=0;bottom=0;right=0;align=left;spacingLeft=6;overflow=hidden;whiteSpace=wrap;html=1;" vertex="1" parent="S1eFWZsZZw3ts-SnHiQv-53">
          <mxGeometry x="30" width="150" height="30" as="geometry">
            <mxRectangle width="150" height="30" as="alternateBounds" />
          </mxGeometry>
        </mxCell>
        <mxCell id="S1eFWZsZZw3ts-SnHiQv-59" value="" style="shape=tableRow;horizontal=0;startSize=0;swimlaneHead=0;swimlaneBody=0;fillColor=none;collapsible=0;dropTarget=0;points=[[0,0.5],[1,0.5]];portConstraint=eastwest;top=0;left=0;right=0;bottom=0;" vertex="1" parent="S1eFWZsZZw3ts-SnHiQv-49">
          <mxGeometry y="90" width="180" height="30" as="geometry" />
        </mxCell>
        <mxCell id="S1eFWZsZZw3ts-SnHiQv-60" value="" style="shape=partialRectangle;connectable=0;fillColor=none;top=0;left=0;bottom=0;right=0;editable=1;overflow=hidden;whiteSpace=wrap;html=1;" vertex="1" parent="S1eFWZsZZw3ts-SnHiQv-59">
          <mxGeometry width="30" height="30" as="geometry">
            <mxRectangle width="30" height="30" as="alternateBounds" />
          </mxGeometry>
        </mxCell>
        <mxCell id="S1eFWZsZZw3ts-SnHiQv-61" value="Correct: Boolean" style="shape=partialRectangle;connectable=0;fillColor=none;top=0;left=0;bottom=0;right=0;align=left;spacingLeft=6;overflow=hidden;whiteSpace=wrap;html=1;" vertex="1" parent="S1eFWZsZZw3ts-SnHiQv-59">
          <mxGeometry x="30" width="150" height="30" as="geometry">
            <mxRectangle width="150" height="30" as="alternateBounds" />
          </mxGeometry>
        </mxCell>
        <mxCell id="S1eFWZsZZw3ts-SnHiQv-56" value="" style="shape=tableRow;horizontal=0;startSize=0;swimlaneHead=0;swimlaneBody=0;fillColor=none;collapsible=0;dropTarget=0;points=[[0,0.5],[1,0.5]];portConstraint=eastwest;top=0;left=0;right=0;bottom=0;" vertex="1" parent="S1eFWZsZZw3ts-SnHiQv-49">
          <mxGeometry y="120" width="180" height="30" as="geometry" />
        </mxCell>
        <mxCell id="S1eFWZsZZw3ts-SnHiQv-57" value="FK" style="shape=partialRectangle;connectable=0;fillColor=none;top=0;left=0;bottom=0;right=0;editable=1;overflow=hidden;whiteSpace=wrap;html=1;" vertex="1" parent="S1eFWZsZZw3ts-SnHiQv-56">
          <mxGeometry width="30" height="30" as="geometry">
            <mxRectangle width="30" height="30" as="alternateBounds" />
          </mxGeometry>
        </mxCell>
        <mxCell id="S1eFWZsZZw3ts-SnHiQv-58" value="QuestionID: Int" style="shape=partialRectangle;connectable=0;fillColor=none;top=0;left=0;bottom=0;right=0;align=left;spacingLeft=6;overflow=hidden;whiteSpace=wrap;html=1;" vertex="1" parent="S1eFWZsZZw3ts-SnHiQv-56">
          <mxGeometry x="30" width="150" height="30" as="geometry">
            <mxRectangle width="150" height="30" as="alternateBounds" />
          </mxGeometry>
        </mxCell>
        <mxCell id="S1eFWZsZZw3ts-SnHiQv-62" style="edgeStyle=orthogonalEdgeStyle;rounded=0;orthogonalLoop=1;jettySize=auto;html=1;endArrow=ERone;endFill=0;startArrow=ERmany;startFill=0;" edge="1" parent="1" source="S1eFWZsZZw3ts-SnHiQv-56" target="S1eFWZsZZw3ts-SnHiQv-33">
          <mxGeometry relative="1" as="geometry" />
        </mxCell>
      </root>
    </mxGraphModel>
  </diagram>
</mxfile>
